<mxfile host="app.diagrams.net" modified="2022-04-11T11:59:10.154Z" agent="5.0 (Windows NT 10.0; Win64; x64) AppleWebKit/537.36 (KHTML, like Gecko) Chrome/93.0.4577.63 Safari/537.36" etag="k-lSrpgxAar_Z1z-I85y" version="17.4.2" type="github">
  <diagram id="0DnSBS0c612ApqtmXOnl" name="Page-1">
    <mxGraphModel dx="1038" dy="547" grid="1" gridSize="10" guides="1" tooltips="1" connect="1" arrows="1" fold="1" page="1" pageScale="1" pageWidth="827" pageHeight="1169" math="0" shadow="0">
      <root>
        <mxCell id="0" />
        <mxCell id="1" parent="0" />
        <mxCell id="jCwAq9MJnEZq_5oJvujX-2" value="" style="rounded=1;whiteSpace=wrap;html=1;" vertex="1" parent="1">
          <mxGeometry x="160" y="120" width="120" height="60" as="geometry" />
        </mxCell>
        <mxCell id="jCwAq9MJnEZq_5oJvujX-3" value="" style="rounded=1;whiteSpace=wrap;html=1;" vertex="1" parent="1">
          <mxGeometry y="120" width="120" height="60" as="geometry" />
        </mxCell>
        <mxCell id="jCwAq9MJnEZq_5oJvujX-4" value="" style="rounded=1;whiteSpace=wrap;html=1;" vertex="1" parent="1">
          <mxGeometry x="560" y="120" width="120" height="60" as="geometry" />
        </mxCell>
        <mxCell id="jCwAq9MJnEZq_5oJvujX-5" value="" style="rounded=1;whiteSpace=wrap;html=1;" vertex="1" parent="1">
          <mxGeometry x="707" y="120" width="120" height="60" as="geometry" />
        </mxCell>
        <mxCell id="jCwAq9MJnEZq_5oJvujX-6" value="" style="rounded=1;whiteSpace=wrap;html=1;" vertex="1" parent="1">
          <mxGeometry x="362" y="190" width="120" height="60" as="geometry" />
        </mxCell>
        <mxCell id="jCwAq9MJnEZq_5oJvujX-7" value="" style="rounded=1;whiteSpace=wrap;html=1;" vertex="1" parent="1">
          <mxGeometry x="362" y="330" width="120" height="60" as="geometry" />
        </mxCell>
        <mxCell id="jCwAq9MJnEZq_5oJvujX-8" value="" style="rounded=1;whiteSpace=wrap;html=1;" vertex="1" parent="1">
          <mxGeometry x="362" y="480" width="120" height="60" as="geometry" />
        </mxCell>
        <mxCell id="jCwAq9MJnEZq_5oJvujX-9" value="" style="rounded=1;whiteSpace=wrap;html=1;" vertex="1" parent="1">
          <mxGeometry x="362" y="660" width="120" height="60" as="geometry" />
        </mxCell>
        <mxCell id="jCwAq9MJnEZq_5oJvujX-10" value="" style="rounded=1;whiteSpace=wrap;html=1;" vertex="1" parent="1">
          <mxGeometry x="362" y="20" width="120" height="60" as="geometry" />
        </mxCell>
        <mxCell id="jCwAq9MJnEZq_5oJvujX-11" value="" style="endArrow=none;html=1;rounded=0;" edge="1" parent="1">
          <mxGeometry width="50" height="50" relative="1" as="geometry">
            <mxPoint x="60" y="100" as="sourcePoint" />
            <mxPoint x="760" y="100" as="targetPoint" />
          </mxGeometry>
        </mxCell>
      </root>
    </mxGraphModel>
  </diagram>
</mxfile>
